<!-- Generated by IcoMoon.io -->
<svg version="1.1" xmlns="http://www.w3.org/2000/svg" width="1200" height="1200" viewBox="0 0 1200 1200">
<title>home</title>
<path transform="scale(1,-1) translate(100,-1050)" fill="#7443b7" stroke="#7443b7" stroke-width="15" d="M461.542 618.62c0 0 0 0 0 0 9.531 0 17.262 7.706 17.302 17.228v37.256c-0.43 9.233-8.020 16.555-17.32 16.555s-16.89-7.323-17.318-16.517l-0.001-0.039v-37.252c0.099-9.514 7.815-17.192 17.334-17.231h0.004zM516.308 618.62c9.501 0.020 17.196 7.727 17.196 17.231 0 0 0 0 0 0v0 37.252c0 9.458-7.667 17.126-17.126 17.126s-17.126-7.667-17.126-17.126v-37.252c0 0 0-0.001 0-0.001 0-9.455 7.614-17.131 17.045-17.23h0.009zM571.11 618.62c0.010 0 0.023 0 0.035 0 9.524 0 17.247 7.71 17.267 17.23v37.254c0 9.497-7.699 17.196-17.196 17.196s-17.196-7.699-17.196-17.196v0-37.252c0-0.011 0-0.023 0-0.036 0-9.46 7.639-17.136 17.085-17.196h0.006zM406.669 618.62c0.021 0 0.046 0 0.071 0 9.531 0 17.262 7.706 17.302 17.228v37.256c0 9.497-7.699 17.196-17.196 17.196s-17.196-7.699-17.196-17.196v0-37.252c0 0 0-0.001 0-0.001 0-9.442 7.594-17.111 17.008-17.23h0.011zM626.017 618.62c9.394 0.159 16.949 7.812 16.949 17.229 0 0.001 0 0.002 0 0.002v0 37.252c0 9.478-7.683 17.161-17.161 17.161s-17.161-7.683-17.161-17.161v0-37.252c0.040-9.525 7.771-17.232 17.302-17.232 0.025 0 0.050 0 0.075 0h-0.004zM674.039 653.118h-19.421v-17.267c0-0.046 0-0.1 0-0.155 0-15.757-12.774-28.531-28.531-28.531-12.97 0-23.919 8.654-27.386 20.504l-0.051 0.202c-3.632-12.020-14.569-20.638-27.532-20.727h-0.010c-12.928 0.065-23.82 8.708-27.28 20.525l-0.051 0.202c-3.524-12.064-14.485-20.727-27.469-20.727-0.001 0-0.001 0-0.002 0v0c-12.953 0.098-23.866 8.716-27.419 20.523l-0.053 0.204c-3.407-12.047-14.304-20.727-27.229-20.727-0.023 0-0.047 0-0.070 0h0.004c-12.944 0.069-23.853 8.705-27.349 20.524l-0.051 0.203c-3.716-11.801-14.56-20.211-27.369-20.211-15.659 0-28.382 12.568-28.633 28.167v17.291h-19.385c-9.497-0.080-17.172-7.767-17.231-17.261v-413.137c0.040-9.486 7.739-17.161 17.231-17.161 0 0 0 0 0 0h315.286c0.021 0 0.046 0 0.071 0 9.492 0 17.191 7.675 17.231 17.157v413.135c-0.060 9.524-7.775 17.227-17.298 17.267h-0.004zM651.794 263.044c0 0 0 0 0-0.001 0-9.506-7.666-17.222-17.153-17.301h-236.411c-9.548 0.020-17.282 7.754-17.302 17.3v303.989c0.060 9.524 7.775 17.227 17.298 17.267h236.407c9.475-0.099 17.121-7.784 17.161-17.263v-0.004zM404.268 500.401h224.15v26.2h-224.15zM404.268 429.25h224.15v26.271h-224.15zM404.268 358.276h224.15v26.165h-224.15zM404.268 287.303h224.15v26.2h-224.15zM485.976 455.309c10.593 3.531 63.1-133.261 70.126-129.766s357.694 371.712 347.171 364.721-326.126-299.573-326.126-299.573zM512-64c-282.165 0-512 229.517-512 512s229.835 512 512 512 512-229.694 512-512-229.658-512-512-512zM512 946.794c-275.103 0-498.794-223.762-498.794-498.794s223.691-498.794 498.794-498.794 498.829 223.762 498.829 498.794-223.762 498.794-498.829 498.794z"></path>
</svg>
