<!-- Generated by IcoMoon.io -->
<svg version="1.1" xmlns="http://www.w3.org/2000/svg" width="1200" height="1200" viewBox="0 0 1200 1200">
<title>home</title>
<path transform="scale(1,-1) translate(100,-1050)" fill="#7443b7" stroke="#7443b7" stroke-width="15" d="M517.226 173.78c-92.76 0-185.521-0.318-278.281 0-0.179-0.001-0.39-0.002-0.602-0.002-29.68 0-56.218 13.453-73.849 34.593l-0.125 0.154c-11.372 12.972-19.393 29.152-22.548 47.012l-0.086 0.587c-1.006 5.316-1.582 11.431-1.582 17.681 0 19.114 5.383 36.97 14.717 52.136l-0.247-0.431q16.313 28.072 32.521 56.214 17.655 30.12 34.922 60.239t34.569 60.028l61.475 106.884q32.521 56.179 65.077 112.428c15.925 27.577 31.426 55.437 47.916 82.732 11.948 19.425 30.1 34.042 51.652 41.223l0.678 0.196c9.544 3.426 20.557 5.438 32.030 5.508h0.032c0.073 0 0.16 0 0.247 0 13.423 0 26.204-2.753 37.808-7.725l-0.626 0.238c24.329-9.993 41.207-27.683 53.848-50.353 15.254-27.33 31.285-54.201 46.786-81.355s31.285-54.625 47.033-81.885c20.268-35.063 40.678-70.056 60.91-105.154 15.748-27.26 31.32-54.625 47.069-81.849 16.984-29.449 34.18-58.792 51.129-88.276 8.051-14.124 16.066-28.248 23.375-42.549 3.535-8.066 6.035-17.418 7.029-27.216l0.033-0.397c0.453-3.292 0.712-7.096 0.712-10.96 0-6.223-0.671-12.289-1.944-18.131l0.102 0.56c-3.984-23.765-16.231-44.135-33.629-58.484l-0.163-0.131c-12.993-11.62-29.564-19.49-47.87-21.778l-0.434-0.044c-13.736-1.306-27.613-1.236-41.419-1.518-10.24-0.212-20.515 0-30.755 0h-217.512zM516.131 217.988q137.922 0 275.88 0c26.813 0.309 49.055 19.498 54.072 44.878l0.058 0.354c0.702 3.21 1.103 6.897 1.103 10.678 0 9.16-2.358 17.769-6.501 25.253l0.136-0.268q-20.092 35.522-40.607 70.868c-14.124 24.294-28.248 48.481-42.161 72.739q-23.411 40.572-46.751 81.214-25.671 44.491-51.482 88.982-23.517 40.713-46.963 81.461l-42.372 73.551c-5.614 9.781-10.84 19.95-20.092 26.977-9.343 7.498-21.342 12.033-34.401 12.033-4.443 0-8.763-0.525-12.902-1.516l0.376 0.076c-15.406-3.171-28.15-12.617-35.668-25.488l-0.137-0.253c-11.193-18.679-21.822-37.711-32.733-56.497q-21.186-36.37-42.125-72.775l-56.497-97.668q-26.836-47.069-53.954-93.996-7.062-12.57-14.513-25.070c-9.251-15.96-18.609-31.779-27.825-47.881-15.89-27.471-31.779-55.049-47.492-82.52-5.119-8.387-8.15-18.534-8.15-29.388 0-4.682 0.564-9.232 1.628-13.587l-0.081 0.391c6.094-24.621 27.996-42.585 54.094-42.585 0.125 0 0.249 0 0.374 0.001h-0.019c14.124 0.177 28.248 0 42.372 0zM515.531 399.342c-5.473 0-10.946 0-16.419 0-9.341 0.143-16.914 7.519-17.371 16.766l-0.002 0.041q-1.201 22.14-2.401 44.244l-2.33 43.855q-1.165 21.539-2.366 43.043t-2.401 43.432c-0.812 14.477-1.589 28.954-2.436 43.432-0.388 6.497-0.742 12.994-1.377 19.491-0.007 0.19-0.011 0.412-0.011 0.636 0 10.18 8.252 18.432 18.432 18.432 0.041 0 0.082 0 0.123 0h-0.006c6.568-0.388 13.206 0.883 19.809 1.059 4.167 0 8.369-0.53 12.535-0.671 10.028-0.318 20.127 0 30.12-0.953 7.062-0.6 13.7-9.145 13.489-16.666-0.424-13.312-1.165-26.589-1.907-39.865-0.53-10.24-1.306-20.445-1.907-30.649q-1.589-28.919-3.107-57.803c-0.883-16.631-1.801-33.227-2.648-49.823-0.883-17.655-1.695-35.098-2.648-52.648-0.291-4.346-0.768-8.285-1.44-12.157l0.098 0.681c-1.957-7.487-8.302-13.057-16.059-13.835l-0.077-0.006h-17.655zM515.849 372.577c20.692 1.095 40.042-17.655 39.83-39.618-0.080-22.015-17.945-39.83-39.971-39.83-22.076 0-39.972 17.896-39.972 39.972 0 0.050 0 0.099 0 0.149v-0.008c-0.071 21.716 18.926 40.607 40.113 39.336zM512-64c-282.165 0-512 229.517-512 512s229.835 512 512 512 512-229.694 512-512-229.658-512-512-512zM512 946.794c-275.103 0-498.794-223.762-498.794-498.794s223.691-498.794 498.794-498.794 498.829 223.762 498.829 498.794-223.762 498.794-498.829 498.794z"></path>
</svg>
