<!-- Generated by IcoMoon.io -->
<svg version="1.1" xmlns="http://www.w3.org/2000/svg" width="1200" height="1200" viewBox="0 0 1200 1200">
<title>home</title>
<path transform="scale(1,-1) translate(100,-1050)" fill="#7443b7" stroke="#7443b7" stroke-width="15" d="M365.639 363.079l149.363 74.717-183.331 88.276-135.91-67.831zM419.098 718.089l-201.975-118.254 114.547-73.587 182.237 102.541zM325.173 357.005l1.095-123.339 190.076-104.872v280.647l-153.035-75.776zM684.385 363.079l169.702 95.338-135.768 67.937-183.402-88.276zM630.607 718.089l-94.702-89.3 182.307-102.612 114.476 73.657zM533.681 409.441v-280.647l189.864 104.872 1.201 123.339-38.347-23.34zM512-64c-282.165 0-512 229.517-512 512s229.835 512 512 512 512-229.694 512-512-229.658-512-512-512zM512 946.794c-275.103 0-498.794-223.762-498.794-498.794s223.691-498.794 498.794-498.794 498.829 223.762 498.829 498.794-223.762 498.794-498.829 498.794z"></path>
</svg>

