<svg xmlns="http://www.w3.org/2000/svg">
  <symbol id="visualapp" viewBox="0 0 20 20">
    <path d="M296.678 809.26s26.765 4.414 26.518-40.607c-0.565-6.144-4.449-21.857-7.98-23.87-1.165-3.072-8.051-39.089 11.511-39.724 18.644-3.814 43.149-2.119 47.669-24.717 4.414-26.977 10.593-80.013 11.511-85.663 4.59-15.36 13.206-71.468 2.648-92.725-1.020-6.292-1.658-13.619-1.764-21.074l-0.001-0.112-0.883-15.113-9.746-14.124-4.414-3.531-1.766 5.297-7.062 0.883 0.883 5.297 6.179 6.179 0.883 5.297-4.414-0.883 3.531 9.71 1.766 10.593 7.062 14.124v20.303s-14.124 35.805-15.007 65.359c-2.048 26.942-5.297 58.297-5.297 58.297s-5.932 15.678-8.828-0.883c-1.589-16.49-11.476-75.070-11.476-75.070-0.012-0.4-0.019-0.871-0.019-1.343 0-9.722 2.977-18.749 8.068-26.219l-0.104 0.161c7.062-14.972 14.654-38.841 9.71-84.745-6.321-47.21-10.593-88.276-10.593-88.276-0.098-3.222-0.154-7.012-0.154-10.814 0-9.863 0.376-19.638 1.116-29.312l-0.079 1.285c0.071-2.833 0.112-6.168 0.112-9.513 0-21.267-1.646-42.149-4.816-62.527l0.29 2.267c-1.483-17.655-2.295-50.847-0.883-61.828 1.695-11.9 5.297-29.166 5.297-29.166l-0.883-6.179-6.179-2.648-5.297-0.883-8.828 2.648-2.648 7.062s1.695 23.411 1.766 25.635-0.883 22.069-0.883 22.069l-3.531 55.649-2.684 58.297-4.414 74.152-6.179 52.118-0.883 14.124-10.593-0.883-7.062-89.194-2.648-31.779-0.883-15.89s1.271-33.615-1.766-53.884c-2.895-26.871-2.401-63.559-2.648-69.773s-1.766-23.834-1.766-23.834l0.883-15.925-0.883-8.828-5.297-2.648-12.359 0.883s-5.791 1.66-3.531 13.277c1.801 8.227 8.828 16.137 7.945 46.786-1.871 29.202-7.062 68.89-7.062 68.89-3.173 9.375-5.004 20.174-5.004 31.4 0 6.072 0.536 12.020 1.563 17.797l-0.090-0.61c0.288 5.042 0.453 10.94 0.453 16.876 0 15.546-1.127 30.828-3.305 45.77l0.203-1.701s-13.736 61.722-7.062 119.243c3.043 15.579 6.704 28.918 11.231 41.851l-0.638-2.092v23.834l-6.215 66.207-5.297 2.507-5.297-6.179-5.297-47.704s-0.883-57.697-12.359-79.484c0.424-12.041 0.388-20.939 1.766-25.635 0.494-3.919 1.766-19.421 1.766-19.421l4.414-8.828 5.297-4.414-2.648-7.062h-4.414l1.766-6.179h-2.648l-20.303 28.248c1.271 2.914 2.479 6.442 3.418 10.078l0.113 0.515c0 1.236 0 27.401 0 27.401-0.825 8.019-1.295 17.328-1.295 26.747 0 16.448 1.435 32.56 4.185 48.219l-0.242-1.662c2.048 28.248 5.826 67.090 9.71 79.484s3.531 28.248 39.759 33.58c12.359 3.531 25.212 8.757 21.186 33.545-1.483 5.897-9.145 9.428-11.476 30.049-0.318 17.161-0.282 43.361 25.6 45.162zM516.308 728.082s26.801 4.414 26.518-40.642c-0.565-6.144-4.414-21.822-7.945-23.834-1.201-3.107-8.051-39.089 11.476-39.759 18.644-3.778 43.149-2.119 47.704-24.717 4.378-27.012 10.593-80.013 11.476-85.698 4.626-15.325 13.206-71.468 2.648-92.725-1.022-6.293-1.66-13.62-1.764-21.076l-0.001-0.111-0.883-15.078-9.71-14.124-4.414-3.531-1.766 5.297-7.062 0.883 0.883 5.297 6.179 6.179 0.883 5.332-4.414-0.883 3.531 9.71 1.766 10.593 7.062 14.124v20.303s-14.124 35.805-15.042 65.359c-2.048 26.977-5.297 58.297-5.297 58.297s-5.897 15.678-8.828-0.883c-1.589-16.49-11.476-75.070-11.476-75.070-0.013-0.403-0.020-0.876-0.020-1.351 0-9.708 2.977-18.72 8.068-26.175l-0.103 0.16c7.062-15.007 14.654-38.841 9.71-84.745-6.285-47.21-10.593-88.276-10.593-88.276s-0.636-24.505 0.883-38.841c0.071-2.827 0.112-6.156 0.112-9.495 0-21.273-1.645-42.161-4.816-62.545l0.29 2.267c-1.448-17.655-2.295-50.812-0.883-61.828 1.73-11.864 5.297-29.131 5.297-29.131l-0.883-6.179-6.179-2.648-5.297-0.883-8.828 2.648-2.648 7.062s1.73 23.411 1.766 25.6-0.883 22.104-0.883 22.104l-3.531 55.614-2.648 58.297-4.414 74.152-6.179 52.083-0.883 14.124-10.593-0.883-7.062-89.229-2.648-31.779-0.883-15.925s1.306-33.615-1.766-53.848c-2.895-26.906-2.366-63.735-2.648-69.773s-1.766-23.87-1.766-23.87l0.883-15.89-0.883-8.828-5.297-2.648-12.359 0.883s-5.791 1.66-3.531 13.241c1.801 8.227 8.828 16.137 7.945 46.822-1.836 29.202-7.062 68.89-7.062 68.89-3.178 9.362-5.012 20.145-5.012 31.356 0 6.076 0.539 12.026 1.571 17.805l-0.090-0.609c0.281 5.001 0.441 10.852 0.441 16.74 0 15.593-1.123 30.924-3.293 45.915l0.203-1.71s-13.736 61.758-7.062 119.243c3.007 15.533 6.669 28.874 11.218 41.797l-0.625-2.038v23.834l-6.179 66.242-5.297 2.648-5.297-6.179-5.332-47.669s-0.847-57.732-12.359-79.519c0.459-12.041 0.424-20.904 1.766-25.6 0.494-3.955 1.766-19.421 1.766-19.421l4.414-8.863 5.297-4.414-2.648-7.062h-4.414l1.766-6.179h-2.648l-20.303 28.248c1.271 2.914 2.479 6.442 3.418 10.078l0.113 0.515c-0.177 1.236 0 27.366 0 27.366-0.825 8.019-1.295 17.327-1.295 26.746 0 16.448 1.434 32.561 4.185 48.221l-0.242-1.662c2.048 28.248 5.826 67.090 9.71 79.519s3.531 28.248 39.759 33.545c12.359 3.531 25.212 8.757 21.186 33.58-1.483 5.897-9.145 9.428-11.476 30.014-0.318 17.055-0.318 43.255 25.565 45.091zM721.673 808.625s26.765 4.414 26.483-40.607c-0.565-6.144-4.414-21.857-7.945-23.87-1.201-3.107-8.051-39.089 11.476-39.724 18.679-3.814 43.149-2.119 47.704-24.717 4.414-26.977 10.593-80.013 11.476-85.663 4.626-15.36 13.206-71.503 2.648-92.76-1.022-6.293-1.66-13.62-1.764-21.076l-0.001-0.111-0.883-15.007-9.71-14.124-4.414-3.531-1.766 5.297-7.062 0.883 0.883 5.297 6.179 6.179 0.883 5.297-4.414-0.883 3.531 9.71 1.766 10.593 7.062 14.124v20.339s-14.124 35.769-15.007 65.359c-2.083 26.942-5.297 58.297-5.297 58.297s-5.932 15.678-8.863-0.883c-1.589-16.525-11.476-75.105-11.476-75.105-0.012-0.396-0.019-0.862-0.019-1.33 0-9.715 2.977-18.734 8.067-26.196l-0.103 0.161c7.062-15.007 14.654-38.841 9.746-84.745-6.321-47.21-10.593-88.276-10.593-88.276s-0.636-24.505 0.883-38.841c0.059-2.573 0.093-5.605 0.093-8.645 0-21.626-1.703-42.854-4.982-63.557l0.299 2.288c-1.448-17.655-2.295-50.847-0.883-61.828 1.73-11.9 5.297-29.166 5.297-29.166l-0.883-6.285-6.179-2.648-5.297-0.883-8.828 2.648-2.648 7.062s1.73 23.411 1.766 25.635-0.883 22.069-0.883 22.069l-3.531 55.649-2.648 58.403-4.414 74.152-6.179 52.153-0.883 14.124-10.593-0.883-7.062-89.194-2.648-31.779-0.883-15.89s1.306-33.651-1.766-53.884c-2.895-26.871-2.366-63.735-2.648-69.773s-1.766-23.87-1.766-23.87l0.883-15.89-0.883-8.828-5.297-2.648-12.359 0.742s-5.791 1.66-3.531 13.241c1.801 8.263 8.863 16.172 7.945 46.822-1.836 29.202-7.062 68.89-7.062 68.89-3.177 9.369-5.011 20.161-5.011 31.381 0 6.079 0.538 12.033 1.57 17.815l-0.090-0.61c0.28 4.996 0.44 10.841 0.44 16.724 0 15.599-1.123 30.936-3.291 45.934l0.203-1.712s-13.736 61.722-7.062 119.243c3.011 15.525 6.674 28.853 11.219 41.766l-0.626-2.042v23.87l-6.179 66.242-5.297 2.648-5.297-6.179-5.297-47.704s-0.883-57.732-12.394-79.484c0.459-12.041 0.424-20.939 1.766-25.635 0.494-3.955 1.766-19.421 1.766-19.421l4.449-8.828 5.297-4.414-2.648-7.062h-4.414l1.766-6.179h-2.684l-20.303 28.248c1.271 2.914 2.479 6.442 3.418 10.078l0.113 0.515c-0.177 1.236 0 27.401 0 27.401-0.825 8.019-1.295 17.328-1.295 26.747 0 16.448 1.435 32.56 4.185 48.219l-0.242-1.662c2.048 28.248 5.826 67.090 9.71 79.484s3.531 28.248 39.759 33.545c12.359 3.531 25.247 8.792 21.186 33.58-1.483 5.897-9.145 9.428-11.476 30.014 0 17.161 0 43.361 25.741 45.162zM299.644 132.608c-49.117 0-98.869 10.593-98.869 31.25s49.752 31.25 98.869 31.25 98.869-10.593 98.869-31.25-49.752-31.25-98.869-31.25zM299.644 185.256c-54.343 0-89.017-12.676-89.017-21.398s34.675-21.398 89.017-21.398 89.088 12.676 89.088 21.398-34.745 21.398-89.088 21.398zM519.38 49.417c-49.117 0-98.869 10.593-98.869 31.25s49.717 31.25 98.869 31.25 98.869-10.593 98.869-31.25-49.823-31.25-98.869-31.25zM519.38 101.959c-54.343 0-88.982-12.676-88.982-21.398s34.639-21.398 88.982-21.398 89.017 12.676 89.017 21.398-34.781 21.398-89.017 21.398zM724.604 132.608c-49.117 0-98.869 10.593-98.869 31.25s49.717 31.25 98.869 31.25 98.869-10.593 98.869-31.25-49.858-31.25-98.869-31.25zM724.604 185.256c-54.307 0-88.982-12.676-88.982-21.398s34.675-21.398 88.982-21.398 89.017 12.676 89.017 21.398-34.675 21.398-89.017 21.398zM512-64c-282.165 0-512 229.517-512 512s229.835 512 512 512 512-229.694 512-512-229.658-512-512-512zM512 946.794c-275.103 0-498.794-223.762-498.794-498.794s223.691-498.794 498.794-498.794 498.829 223.762 498.829 498.794-223.762 498.794-498.829 498.794z"/>
  </symbol>
</svg>